<svg xmlns="http://www.w3.org/2000/svg" width="1560" height="820" viewBox="0 0 1560 820" font-family="Segoe UI,Roboto,Helvetica,Arial,sans-serif"><rect width="1560" height="820" fill="#ffffff"/><rect x="4" y="4" width="1552" height="812" rx="13" fill="none" stroke="#cfd6e0" stroke-width="1.4"/><defs><marker id="a" markerWidth="8" markerHeight="8" refX="6" refY="3" orient="auto"><path d="M0,0 L6,3 L0,6 Z" fill="#7a5bd0"/></marker></defs><text x="26" y="30" font-size="18" font-weight="800" fill="#222">Transformer encoder block — traffic DAG</text><text x="26" y="49" font-size="11.5" fill="#6b7280">108 tiles on 6×6×3 · rank = phase window · edge width ∝ bytes/period · 16.34 MB reduce total · t_period 181,263 cycles · 2 identity residuals</text><circle cx="40" cy="320" r="5" fill="#6b7280"/><text x="40" y="309" text-anchor="middle" font-size="10" fill="#6b7280">input</text><line x1="40.0" y1="320.0" x2="170.0" y2="297.5" stroke="#9aa3b0" stroke-width="0.50" opacity="0.22"/><line x1="40.0" y1="320.0" x2="170.0" y2="306.5" stroke="#9aa3b0" stroke-width="0.50" opacity="0.22"/><line x1="40.0" y1="320.0" x2="170.0" y2="315.5" stroke="#9aa3b0" stroke-width="0.50" opacity="0.22"/><line x1="40.0" y1="320.0" x2="170.0" y2="324.5" stroke="#9aa3b0" stroke-width="0.50" opacity="0.22"/><line x1="40.0" y1="320.0" x2="170.0" y2="333.5" stroke="#9aa3b0" stroke-width="0.50" opacity="0.22"/><line x1="40.0" y1="320.0" x2="170.0" y2="342.5" stroke="#9aa3b0" stroke-width="0.50" opacity="0.22"/><line x1="280.0" y1="302.0" x2="398.0" y2="297.5" stroke="#9aa3b0" stroke-width="0.50" opacity="0.22"/><line x1="280.0" y1="302.0" x2="398.0" y2="306.5" stroke="#9aa3b0" stroke-width="0.50" opacity="0.22"/><line x1="280.0" y1="302.0" x2="398.0" y2="315.5" stroke="#9aa3b0" stroke-width="0.50" opacity="0.22"/><line x1="280.0" y1="302.0" x2="398.0" y2="324.5" stroke="#9aa3b0" stroke-width="0.50" opacity="0.22"/><line x1="280.0" y1="302.0" x2="398.0" y2="333.5" stroke="#9aa3b0" stroke-width="0.50" opacity="0.22"/><line x1="280.0" y1="302.0" x2="398.0" y2="342.5" stroke="#9aa3b0" stroke-width="0.50" opacity="0.22"/><line x1="280.0" y1="320.0" x2="398.0" y2="297.5" stroke="#9aa3b0" stroke-width="0.50" opacity="0.22"/><line x1="280.0" y1="320.0" x2="398.0" y2="306.5" stroke="#9aa3b0" stroke-width="0.50" opacity="0.22"/><line x1="280.0" y1="320.0" x2="398.0" y2="315.5" stroke="#9aa3b0" stroke-width="0.50" opacity="0.22"/><line x1="280.0" y1="320.0" x2="398.0" y2="324.5" stroke="#9aa3b0" stroke-width="0.50" opacity="0.22"/><line x1="280.0" y1="320.0" x2="398.0" y2="333.5" stroke="#9aa3b0" stroke-width="0.50" opacity="0.22"/><line x1="280.0" y1="320.0" x2="398.0" y2="342.5" stroke="#9aa3b0" stroke-width="0.50" opacity="0.22"/><line x1="280.0" y1="338.0" x2="398.0" y2="297.5" stroke="#9aa3b0" stroke-width="0.50" opacity="0.22"/><line x1="280.0" y1="338.0" x2="398.0" y2="306.5" stroke="#9aa3b0" stroke-width="0.50" opacity="0.22"/><line x1="280.0" y1="338.0" x2="398.0" y2="315.5" stroke="#9aa3b0" stroke-width="0.50" opacity="0.22"/><line x1="280.0" y1="338.0" x2="398.0" y2="324.5" stroke="#9aa3b0" stroke-width="0.50" opacity="0.22"/><line x1="280.0" y1="338.0" x2="398.0" y2="333.5" stroke="#9aa3b0" stroke-width="0.50" opacity="0.22"/><line x1="280.0" y1="338.0" x2="398.0" y2="342.5" stroke="#9aa3b0" stroke-width="0.50" opacity="0.22"/><line x1="508.0" y1="302.0" x2="626.0" y2="297.5" stroke="#9aa3b0" stroke-width="0.50" opacity="0.22"/><line x1="508.0" y1="302.0" x2="626.0" y2="306.5" stroke="#9aa3b0" stroke-width="0.50" opacity="0.22"/><line x1="508.0" y1="302.0" x2="626.0" y2="315.5" stroke="#9aa3b0" stroke-width="0.50" opacity="0.22"/><line x1="508.0" y1="302.0" x2="626.0" y2="324.5" stroke="#9aa3b0" stroke-width="0.50" opacity="0.22"/><line x1="508.0" y1="302.0" x2="626.0" y2="333.5" stroke="#9aa3b0" stroke-width="0.50" opacity="0.22"/><line x1="508.0" y1="302.0" x2="626.0" y2="342.5" stroke="#9aa3b0" stroke-width="0.50" opacity="0.22"/><line x1="508.0" y1="320.0" x2="626.0" y2="297.5" stroke="#9aa3b0" stroke-width="0.50" opacity="0.22"/><line x1="508.0" y1="320.0" x2="626.0" y2="306.5" stroke="#9aa3b0" stroke-width="0.50" opacity="0.22"/><line x1="508.0" y1="320.0" x2="626.0" y2="315.5" stroke="#9aa3b0" stroke-width="0.50" opacity="0.22"/><line x1="508.0" y1="320.0" x2="626.0" y2="324.5" stroke="#9aa3b0" stroke-width="0.50" opacity="0.22"/><line x1="508.0" y1="320.0" x2="626.0" y2="333.5" stroke="#9aa3b0" stroke-width="0.50" opacity="0.22"/><line x1="508.0" y1="320.0" x2="626.0" y2="342.5" stroke="#9aa3b0" stroke-width="0.50" opacity="0.22"/><line x1="508.0" y1="338.0" x2="626.0" y2="297.5" stroke="#9aa3b0" stroke-width="0.50" opacity="0.22"/><line x1="508.0" y1="338.0" x2="626.0" y2="306.5" stroke="#9aa3b0" stroke-width="0.50" opacity="0.22"/><line x1="508.0" y1="338.0" x2="626.0" y2="315.5" stroke="#9aa3b0" stroke-width="0.50" opacity="0.22"/><line x1="508.0" y1="338.0" x2="626.0" y2="324.5" stroke="#9aa3b0" stroke-width="0.50" opacity="0.22"/><line x1="508.0" y1="338.0" x2="626.0" y2="333.5" stroke="#9aa3b0" stroke-width="0.50" opacity="0.22"/><line x1="508.0" y1="338.0" x2="626.0" y2="342.5" stroke="#9aa3b0" stroke-width="0.50" opacity="0.22"/><line x1="736.0" y1="302.0" x2="854.0" y2="297.5" stroke="#9aa3b0" stroke-width="0.50" opacity="0.22"/><line x1="736.0" y1="302.0" x2="854.0" y2="306.5" stroke="#9aa3b0" stroke-width="0.50" opacity="0.22"/><line x1="736.0" y1="302.0" x2="854.0" y2="315.5" stroke="#9aa3b0" stroke-width="0.50" opacity="0.22"/><line x1="736.0" y1="302.0" x2="854.0" y2="324.5" stroke="#9aa3b0" stroke-width="0.50" opacity="0.22"/><line x1="736.0" y1="302.0" x2="854.0" y2="333.5" stroke="#9aa3b0" stroke-width="0.50" opacity="0.22"/><line x1="736.0" y1="302.0" x2="854.0" y2="342.5" stroke="#9aa3b0" stroke-width="0.50" opacity="0.22"/><line x1="736.0" y1="320.0" x2="854.0" y2="297.5" stroke="#9aa3b0" stroke-width="0.50" opacity="0.22"/><line x1="736.0" y1="320.0" x2="854.0" y2="306.5" stroke="#9aa3b0" stroke-width="0.50" opacity="0.22"/><line x1="736.0" y1="320.0" x2="854.0" y2="315.5" stroke="#9aa3b0" stroke-width="0.50" opacity="0.22"/><line x1="736.0" y1="320.0" x2="854.0" y2="324.5" stroke="#9aa3b0" stroke-width="0.50" opacity="0.22"/><line x1="736.0" y1="320.0" x2="854.0" y2="333.5" stroke="#9aa3b0" stroke-width="0.50" opacity="0.22"/><line x1="736.0" y1="320.0" x2="854.0" y2="342.5" stroke="#9aa3b0" stroke-width="0.50" opacity="0.22"/><line x1="736.0" y1="338.0" x2="854.0" y2="297.5" stroke="#9aa3b0" stroke-width="0.50" opacity="0.22"/><line x1="736.0" y1="338.0" x2="854.0" y2="306.5" stroke="#9aa3b0" stroke-width="0.50" opacity="0.22"/><line x1="736.0" y1="338.0" x2="854.0" y2="315.5" stroke="#9aa3b0" stroke-width="0.50" opacity="0.22"/><line x1="736.0" y1="338.0" x2="854.0" y2="324.5" stroke="#9aa3b0" stroke-width="0.50" opacity="0.22"/><line x1="736.0" y1="338.0" x2="854.0" y2="333.5" stroke="#9aa3b0" stroke-width="0.50" opacity="0.22"/><line x1="736.0" y1="338.0" x2="854.0" y2="342.5" stroke="#9aa3b0" stroke-width="0.50" opacity="0.22"/><line x1="964.0" y1="302.0" x2="1082.0" y2="216.5" stroke="#9aa3b0" stroke-width="0.50" opacity="0.22"/><line x1="964.0" y1="302.0" x2="1082.0" y2="225.5" stroke="#9aa3b0" stroke-width="0.50" opacity="0.22"/><line x1="964.0" y1="302.0" x2="1082.0" y2="234.5" stroke="#9aa3b0" stroke-width="0.50" opacity="0.22"/><line x1="964.0" y1="302.0" x2="1082.0" y2="243.5" stroke="#9aa3b0" stroke-width="0.50" opacity="0.22"/><line x1="964.0" y1="302.0" x2="1082.0" y2="252.5" stroke="#9aa3b0" stroke-width="0.50" opacity="0.22"/><line x1="964.0" y1="302.0" x2="1082.0" y2="261.5" stroke="#9aa3b0" stroke-width="0.50" opacity="0.22"/><line x1="964.0" y1="302.0" x2="1082.0" y2="270.5" stroke="#9aa3b0" stroke-width="0.50" opacity="0.22"/><line x1="964.0" y1="302.0" x2="1082.0" y2="279.5" stroke="#9aa3b0" stroke-width="0.50" opacity="0.22"/><line x1="964.0" y1="302.0" x2="1082.0" y2="288.5" stroke="#9aa3b0" stroke-width="0.50" opacity="0.22"/><line x1="964.0" y1="302.0" x2="1082.0" y2="297.5" stroke="#9aa3b0" stroke-width="0.50" opacity="0.22"/><line x1="964.0" y1="302.0" x2="1082.0" y2="306.5" stroke="#9aa3b0" stroke-width="0.50" opacity="0.22"/><line x1="964.0" y1="302.0" x2="1082.0" y2="315.5" stroke="#9aa3b0" stroke-width="0.50" opacity="0.22"/><line x1="964.0" y1="302.0" x2="1082.0" y2="324.5" stroke="#9aa3b0" stroke-width="0.50" opacity="0.22"/><line x1="964.0" y1="302.0" x2="1082.0" y2="333.5" stroke="#9aa3b0" stroke-width="0.50" opacity="0.22"/><line x1="964.0" y1="302.0" x2="1082.0" y2="342.5" stroke="#9aa3b0" stroke-width="0.50" opacity="0.22"/><line x1="964.0" y1="302.0" x2="1082.0" y2="351.5" stroke="#9aa3b0" stroke-width="0.50" opacity="0.22"/><line x1="964.0" y1="302.0" x2="1082.0" y2="360.5" stroke="#9aa3b0" stroke-width="0.50" opacity="0.22"/><line x1="964.0" y1="302.0" x2="1082.0" y2="369.5" stroke="#9aa3b0" stroke-width="0.50" opacity="0.22"/><line x1="964.0" y1="302.0" x2="1082.0" y2="378.5" stroke="#9aa3b0" stroke-width="0.50" opacity="0.22"/><line x1="964.0" y1="302.0" x2="1082.0" y2="387.5" stroke="#9aa3b0" stroke-width="0.50" opacity="0.22"/><line x1="964.0" y1="302.0" x2="1082.0" y2="396.5" stroke="#9aa3b0" stroke-width="0.50" opacity="0.22"/><line x1="964.0" y1="302.0" x2="1082.0" y2="405.5" stroke="#9aa3b0" stroke-width="0.50" opacity="0.22"/><line x1="964.0" y1="302.0" x2="1082.0" y2="414.5" stroke="#9aa3b0" stroke-width="0.50" opacity="0.22"/><line x1="964.0" y1="302.0" x2="1082.0" y2="423.5" stroke="#9aa3b0" stroke-width="0.50" opacity="0.22"/><line x1="964.0" y1="320.0" x2="1082.0" y2="216.5" stroke="#9aa3b0" stroke-width="0.50" opacity="0.22"/><line x1="964.0" y1="320.0" x2="1082.0" y2="225.5" stroke="#9aa3b0" stroke-width="0.50" opacity="0.22"/><line x1="964.0" y1="320.0" x2="1082.0" y2="234.5" stroke="#9aa3b0" stroke-width="0.50" opacity="0.22"/><line x1="964.0" y1="320.0" x2="1082.0" y2="243.5" stroke="#9aa3b0" stroke-width="0.50" opacity="0.22"/><line x1="964.0" y1="320.0" x2="1082.0" y2="252.5" stroke="#9aa3b0" stroke-width="0.50" opacity="0.22"/><line x1="964.0" y1="320.0" x2="1082.0" y2="261.5" stroke="#9aa3b0" stroke-width="0.50" opacity="0.22"/><line x1="964.0" y1="320.0" x2="1082.0" y2="270.5" stroke="#9aa3b0" stroke-width="0.50" opacity="0.22"/><line x1="964.0" y1="320.0" x2="1082.0" y2="279.5" stroke="#9aa3b0" stroke-width="0.50" opacity="0.22"/><line x1="964.0" y1="320.0" x2="1082.0" y2="288.5" stroke="#9aa3b0" stroke-width="0.50" opacity="0.22"/><line x1="964.0" y1="320.0" x2="1082.0" y2="297.5" stroke="#9aa3b0" stroke-width="0.50" opacity="0.22"/><line x1="964.0" y1="320.0" x2="1082.0" y2="306.5" stroke="#9aa3b0" stroke-width="0.50" opacity="0.22"/><line x1="964.0" y1="320.0" x2="1082.0" y2="315.5" stroke="#9aa3b0" stroke-width="0.50" opacity="0.22"/><line x1="964.0" y1="320.0" x2="1082.0" y2="324.5" stroke="#9aa3b0" stroke-width="0.50" opacity="0.22"/><line x1="964.0" y1="320.0" x2="1082.0" y2="333.5" stroke="#9aa3b0" stroke-width="0.50" opacity="0.22"/><line x1="964.0" y1="320.0" x2="1082.0" y2="342.5" stroke="#9aa3b0" stroke-width="0.50" opacity="0.22"/><line x1="964.0" y1="320.0" x2="1082.0" y2="351.5" stroke="#9aa3b0" stroke-width="0.50" opacity="0.22"/><line x1="964.0" y1="320.0" x2="1082.0" y2="360.5" stroke="#9aa3b0" stroke-width="0.50" opacity="0.22"/><line x1="964.0" y1="320.0" x2="1082.0" y2="369.5" stroke="#9aa3b0" stroke-width="0.50" opacity="0.22"/><line x1="964.0" y1="320.0" x2="1082.0" y2="378.5" stroke="#9aa3b0" stroke-width="0.50" opacity="0.22"/><line x1="964.0" y1="320.0" x2="1082.0" y2="387.5" stroke="#9aa3b0" stroke-width="0.50" opacity="0.22"/><line x1="964.0" y1="320.0" x2="1082.0" y2="396.5" stroke="#9aa3b0" stroke-width="0.50" opacity="0.22"/><line x1="964.0" y1="320.0" x2="1082.0" y2="405.5" stroke="#9aa3b0" stroke-width="0.50" opacity="0.22"/><line x1="964.0" y1="320.0" x2="1082.0" y2="414.5" stroke="#9aa3b0" stroke-width="0.50" opacity="0.22"/><line x1="964.0" y1="320.0" x2="1082.0" y2="423.5" stroke="#9aa3b0" stroke-width="0.50" opacity="0.22"/><line x1="964.0" y1="338.0" x2="1082.0" y2="216.5" stroke="#9aa3b0" stroke-width="0.50" opacity="0.22"/><line x1="964.0" y1="338.0" x2="1082.0" y2="225.5" stroke="#9aa3b0" stroke-width="0.50" opacity="0.22"/><line x1="964.0" y1="338.0" x2="1082.0" y2="234.5" stroke="#9aa3b0" stroke-width="0.50" opacity="0.22"/><line x1="964.0" y1="338.0" x2="1082.0" y2="243.5" stroke="#9aa3b0" stroke-width="0.50" opacity="0.22"/><line x1="964.0" y1="338.0" x2="1082.0" y2="252.5" stroke="#9aa3b0" stroke-width="0.50" opacity="0.22"/><line x1="964.0" y1="338.0" x2="1082.0" y2="261.5" stroke="#9aa3b0" stroke-width="0.50" opacity="0.22"/><line x1="964.0" y1="338.0" x2="1082.0" y2="270.5" stroke="#9aa3b0" stroke-width="0.50" opacity="0.22"/><line x1="964.0" y1="338.0" x2="1082.0" y2="279.5" stroke="#9aa3b0" stroke-width="0.50" opacity="0.22"/><line x1="964.0" y1="338.0" x2="1082.0" y2="288.5" stroke="#9aa3b0" stroke-width="0.50" opacity="0.22"/><line x1="964.0" y1="338.0" x2="1082.0" y2="297.5" stroke="#9aa3b0" stroke-width="0.50" opacity="0.22"/><line x1="964.0" y1="338.0" x2="1082.0" y2="306.5" stroke="#9aa3b0" stroke-width="0.50" opacity="0.22"/><line x1="964.0" y1="338.0" x2="1082.0" y2="315.5" stroke="#9aa3b0" stroke-width="0.50" opacity="0.22"/><line x1="964.0" y1="338.0" x2="1082.0" y2="324.5" stroke="#9aa3b0" stroke-width="0.50" opacity="0.22"/><line x1="964.0" y1="338.0" x2="1082.0" y2="333.5" stroke="#9aa3b0" stroke-width="0.50" opacity="0.22"/><line x1="964.0" y1="338.0" x2="1082.0" y2="342.5" stroke="#9aa3b0" stroke-width="0.50" opacity="0.22"/><line x1="964.0" y1="338.0" x2="1082.0" y2="351.5" stroke="#9aa3b0" stroke-width="0.50" opacity="0.22"/><line x1="964.0" y1="338.0" x2="1082.0" y2="360.5" stroke="#9aa3b0" stroke-width="0.50" opacity="0.22"/><line x1="964.0" y1="338.0" x2="1082.0" y2="369.5" stroke="#9aa3b0" stroke-width="0.50" opacity="0.22"/><line x1="964.0" y1="338.0" x2="1082.0" y2="378.5" stroke="#9aa3b0" stroke-width="0.50" opacity="0.22"/><line x1="964.0" y1="338.0" x2="1082.0" y2="387.5" stroke="#9aa3b0" stroke-width="0.50" opacity="0.22"/><line x1="964.0" y1="338.0" x2="1082.0" y2="396.5" stroke="#9aa3b0" stroke-width="0.50" opacity="0.22"/><line x1="964.0" y1="338.0" x2="1082.0" y2="405.5" stroke="#9aa3b0" stroke-width="0.50" opacity="0.22"/><line x1="964.0" y1="338.0" x2="1082.0" y2="414.5" stroke="#9aa3b0" stroke-width="0.50" opacity="0.22"/><line x1="964.0" y1="338.0" x2="1082.0" y2="423.5" stroke="#9aa3b0" stroke-width="0.50" opacity="0.22"/><line x1="1192.0" y1="221.0" x2="1320.0" y2="176.0" stroke="#9aa3b0" stroke-width="0.70" opacity="0.3"/><line x1="1192.0" y1="221.0" x2="1320.0" y2="275.0" stroke="#9aa3b0" stroke-width="0.70" opacity="0.3"/><line x1="1192.0" y1="221.0" x2="1320.0" y2="374.0" stroke="#9aa3b0" stroke-width="0.70" opacity="0.3"/><line x1="1192.0" y1="239.0" x2="1320.0" y2="176.0" stroke="#9aa3b0" stroke-width="0.70" opacity="0.3"/><line x1="1192.0" y1="239.0" x2="1320.0" y2="275.0" stroke="#9aa3b0" stroke-width="0.70" opacity="0.3"/><line x1="1192.0" y1="239.0" x2="1320.0" y2="374.0" stroke="#9aa3b0" stroke-width="0.70" opacity="0.3"/><line x1="1192.0" y1="257.0" x2="1320.0" y2="176.0" stroke="#9aa3b0" stroke-width="0.70" opacity="0.3"/><line x1="1192.0" y1="257.0" x2="1320.0" y2="275.0" stroke="#9aa3b0" stroke-width="0.70" opacity="0.3"/><line x1="1192.0" y1="257.0" x2="1320.0" y2="374.0" stroke="#9aa3b0" stroke-width="0.70" opacity="0.3"/><line x1="1192.0" y1="275.0" x2="1320.0" y2="176.0" stroke="#9aa3b0" stroke-width="0.70" opacity="0.3"/><line x1="1192.0" y1="275.0" x2="1320.0" y2="275.0" stroke="#9aa3b0" stroke-width="0.70" opacity="0.3"/><line x1="1192.0" y1="275.0" x2="1320.0" y2="374.0" stroke="#9aa3b0" stroke-width="0.70" opacity="0.3"/><line x1="1192.0" y1="293.0" x2="1320.0" y2="176.0" stroke="#9aa3b0" stroke-width="0.70" opacity="0.3"/><line x1="1192.0" y1="293.0" x2="1320.0" y2="275.0" stroke="#9aa3b0" stroke-width="0.70" opacity="0.3"/><line x1="1192.0" y1="293.0" x2="1320.0" y2="374.0" stroke="#9aa3b0" stroke-width="0.70" opacity="0.3"/><line x1="1192.0" y1="311.0" x2="1320.0" y2="176.0" stroke="#9aa3b0" stroke-width="0.70" opacity="0.3"/><line x1="1192.0" y1="311.0" x2="1320.0" y2="275.0" stroke="#9aa3b0" stroke-width="0.70" opacity="0.3"/><line x1="1192.0" y1="311.0" x2="1320.0" y2="374.0" stroke="#9aa3b0" stroke-width="0.70" opacity="0.3"/><line x1="1192.0" y1="329.0" x2="1320.0" y2="176.0" stroke="#9aa3b0" stroke-width="0.70" opacity="0.3"/><line x1="1192.0" y1="329.0" x2="1320.0" y2="275.0" stroke="#9aa3b0" stroke-width="0.70" opacity="0.3"/><line x1="1192.0" y1="329.0" x2="1320.0" y2="374.0" stroke="#9aa3b0" stroke-width="0.70" opacity="0.3"/><line x1="1192.0" y1="347.0" x2="1320.0" y2="176.0" stroke="#9aa3b0" stroke-width="0.70" opacity="0.3"/><line x1="1192.0" y1="347.0" x2="1320.0" y2="275.0" stroke="#9aa3b0" stroke-width="0.70" opacity="0.3"/><line x1="1192.0" y1="347.0" x2="1320.0" y2="374.0" stroke="#9aa3b0" stroke-width="0.70" opacity="0.3"/><line x1="1192.0" y1="365.0" x2="1320.0" y2="176.0" stroke="#9aa3b0" stroke-width="0.70" opacity="0.3"/><line x1="1192.0" y1="365.0" x2="1320.0" y2="275.0" stroke="#9aa3b0" stroke-width="0.70" opacity="0.3"/><line x1="1192.0" y1="365.0" x2="1320.0" y2="374.0" stroke="#9aa3b0" stroke-width="0.70" opacity="0.3"/><line x1="1192.0" y1="383.0" x2="1320.0" y2="176.0" stroke="#9aa3b0" stroke-width="0.70" opacity="0.3"/><line x1="1192.0" y1="383.0" x2="1320.0" y2="275.0" stroke="#9aa3b0" stroke-width="0.70" opacity="0.3"/><line x1="1192.0" y1="383.0" x2="1320.0" y2="374.0" stroke="#9aa3b0" stroke-width="0.70" opacity="0.3"/><line x1="1192.0" y1="401.0" x2="1320.0" y2="176.0" stroke="#9aa3b0" stroke-width="0.70" opacity="0.3"/><line x1="1192.0" y1="401.0" x2="1320.0" y2="275.0" stroke="#9aa3b0" stroke-width="0.70" opacity="0.3"/><line x1="1192.0" y1="401.0" x2="1320.0" y2="374.0" stroke="#9aa3b0" stroke-width="0.70" opacity="0.3"/><line x1="1192.0" y1="419.0" x2="1320.0" y2="176.0" stroke="#9aa3b0" stroke-width="0.70" opacity="0.3"/><line x1="1192.0" y1="419.0" x2="1320.0" y2="275.0" stroke="#9aa3b0" stroke-width="0.70" opacity="0.3"/><line x1="1192.0" y1="419.0" x2="1320.0" y2="374.0" stroke="#9aa3b0" stroke-width="0.70" opacity="0.3"/><line x1="170.0" y1="297.5" x2="280.0" y2="302.0" stroke="#9aa3b0" stroke-width="3.40" opacity="0.6"/><line x1="170.0" y1="306.5" x2="280.0" y2="302.0" stroke="#9aa3b0" stroke-width="3.40" opacity="0.6"/><line x1="170.0" y1="315.5" x2="280.0" y2="320.0" stroke="#9aa3b0" stroke-width="3.40" opacity="0.6"/><line x1="170.0" y1="324.5" x2="280.0" y2="320.0" stroke="#9aa3b0" stroke-width="3.40" opacity="0.6"/><line x1="170.0" y1="333.5" x2="280.0" y2="338.0" stroke="#9aa3b0" stroke-width="3.40" opacity="0.6"/><line x1="170.0" y1="342.5" x2="280.0" y2="338.0" stroke="#9aa3b0" stroke-width="3.40" opacity="0.6"/><rect x="150" y="247.0" width="150" height="116.0" rx="9" fill="#fbfcfe" stroke="#cfd6e0" stroke-width="1"/><text x="160" y="265.0" font-size="13.5" font-weight="700" fill="#3f6fd1">q</text><text x="160" y="279.0" font-size="9" fill="#6b7280">9 tiles · R=3 C=3 · 1.21 MB · [0, 15,105)</text><circle cx="170.0" cy="297.5" r="3.1" fill="#3f6fd1"/><circle cx="170.0" cy="306.5" r="3.1" fill="#3f6fd1"/><circle cx="170.0" cy="315.5" r="3.1" fill="#3f6fd1"/><circle cx="170.0" cy="324.5" r="3.1" fill="#3f6fd1"/><circle cx="170.0" cy="333.5" r="3.1" fill="#3f6fd1"/><circle cx="170.0" cy="342.5" r="3.1" fill="#3f6fd1"/><rect x="275.5" y="297.5" width="9" height="9" rx="1.5" fill="#3f6fd1"/><rect x="275.5" y="315.5" width="9" height="9" rx="1.5" fill="#3f6fd1"/><rect x="275.5" y="333.5" width="9" height="9" rx="1.5" fill="#3f6fd1"/><line x1="398.0" y1="297.5" x2="508.0" y2="302.0" stroke="#9aa3b0" stroke-width="3.40" opacity="0.6"/><line x1="398.0" y1="306.5" x2="508.0" y2="302.0" stroke="#9aa3b0" stroke-width="3.40" opacity="0.6"/><line x1="398.0" y1="315.5" x2="508.0" y2="320.0" stroke="#9aa3b0" stroke-width="3.40" opacity="0.6"/><line x1="398.0" y1="324.5" x2="508.0" y2="320.0" stroke="#9aa3b0" stroke-width="3.40" opacity="0.6"/><line x1="398.0" y1="333.5" x2="508.0" y2="338.0" stroke="#9aa3b0" stroke-width="3.40" opacity="0.6"/><line x1="398.0" y1="342.5" x2="508.0" y2="338.0" stroke="#9aa3b0" stroke-width="3.40" opacity="0.6"/><rect x="378" y="247.0" width="150" height="116.0" rx="9" fill="#fbfcfe" stroke="#cfd6e0" stroke-width="1"/><text x="388" y="265.0" font-size="13.5" font-weight="700" fill="#e8890c">k</text><text x="388" y="279.0" font-size="9" fill="#6b7280">9 tiles · R=3 C=3 · 1.21 MB · [15,105, 30,210)</text><circle cx="398.0" cy="297.5" r="3.1" fill="#e8890c"/><circle cx="398.0" cy="306.5" r="3.1" fill="#e8890c"/><circle cx="398.0" cy="315.5" r="3.1" fill="#e8890c"/><circle cx="398.0" cy="324.5" r="3.1" fill="#e8890c"/><circle cx="398.0" cy="333.5" r="3.1" fill="#e8890c"/><circle cx="398.0" cy="342.5" r="3.1" fill="#e8890c"/><rect x="503.5" y="297.5" width="9" height="9" rx="1.5" fill="#e8890c"/><rect x="503.5" y="315.5" width="9" height="9" rx="1.5" fill="#e8890c"/><rect x="503.5" y="333.5" width="9" height="9" rx="1.5" fill="#e8890c"/><line x1="626.0" y1="297.5" x2="736.0" y2="302.0" stroke="#9aa3b0" stroke-width="3.40" opacity="0.6"/><line x1="626.0" y1="306.5" x2="736.0" y2="302.0" stroke="#9aa3b0" stroke-width="3.40" opacity="0.6"/><line x1="626.0" y1="315.5" x2="736.0" y2="320.0" stroke="#9aa3b0" stroke-width="3.40" opacity="0.6"/><line x1="626.0" y1="324.5" x2="736.0" y2="320.0" stroke="#9aa3b0" stroke-width="3.40" opacity="0.6"/><line x1="626.0" y1="333.5" x2="736.0" y2="338.0" stroke="#9aa3b0" stroke-width="3.40" opacity="0.6"/><line x1="626.0" y1="342.5" x2="736.0" y2="338.0" stroke="#9aa3b0" stroke-width="3.40" opacity="0.6"/><rect x="606" y="247.0" width="150" height="116.0" rx="9" fill="#fbfcfe" stroke="#cfd6e0" stroke-width="1"/><text x="616" y="265.0" font-size="13.5" font-weight="700" fill="#2a9d5c">v</text><text x="616" y="279.0" font-size="9" fill="#6b7280">9 tiles · R=3 C=3 · 1.21 MB · [30,210, 45,315)</text><circle cx="626.0" cy="297.5" r="3.1" fill="#2a9d5c"/><circle cx="626.0" cy="306.5" r="3.1" fill="#2a9d5c"/><circle cx="626.0" cy="315.5" r="3.1" fill="#2a9d5c"/><circle cx="626.0" cy="324.5" r="3.1" fill="#2a9d5c"/><circle cx="626.0" cy="333.5" r="3.1" fill="#2a9d5c"/><circle cx="626.0" cy="342.5" r="3.1" fill="#2a9d5c"/><rect x="731.5" y="297.5" width="9" height="9" rx="1.5" fill="#2a9d5c"/><rect x="731.5" y="315.5" width="9" height="9" rx="1.5" fill="#2a9d5c"/><rect x="731.5" y="333.5" width="9" height="9" rx="1.5" fill="#2a9d5c"/><line x1="854.0" y1="297.5" x2="964.0" y2="302.0" stroke="#9aa3b0" stroke-width="3.40" opacity="0.6"/><line x1="854.0" y1="306.5" x2="964.0" y2="302.0" stroke="#9aa3b0" stroke-width="3.40" opacity="0.6"/><line x1="854.0" y1="315.5" x2="964.0" y2="320.0" stroke="#9aa3b0" stroke-width="3.40" opacity="0.6"/><line x1="854.0" y1="324.5" x2="964.0" y2="320.0" stroke="#9aa3b0" stroke-width="3.40" opacity="0.6"/><line x1="854.0" y1="333.5" x2="964.0" y2="338.0" stroke="#9aa3b0" stroke-width="3.40" opacity="0.6"/><line x1="854.0" y1="342.5" x2="964.0" y2="338.0" stroke="#9aa3b0" stroke-width="3.40" opacity="0.6"/><rect x="834" y="247.0" width="150" height="116.0" rx="9" fill="#fbfcfe" stroke="#cfd6e0" stroke-width="1"/><text x="844" y="265.0" font-size="13.5" font-weight="700" fill="#12a4b8">o</text><text x="844" y="279.0" font-size="9" fill="#6b7280">9 tiles · R=3 C=3 · 1.21 MB · [45,315, 60,420)</text><circle cx="854.0" cy="297.5" r="3.1" fill="#12a4b8"/><circle cx="854.0" cy="306.5" r="3.1" fill="#12a4b8"/><circle cx="854.0" cy="315.5" r="3.1" fill="#12a4b8"/><circle cx="854.0" cy="324.5" r="3.1" fill="#12a4b8"/><circle cx="854.0" cy="333.5" r="3.1" fill="#12a4b8"/><circle cx="854.0" cy="342.5" r="3.1" fill="#12a4b8"/><rect x="959.5" y="297.5" width="9" height="9" rx="1.5" fill="#12a4b8"/><rect x="959.5" y="315.5" width="9" height="9" rx="1.5" fill="#12a4b8"/><rect x="959.5" y="333.5" width="9" height="9" rx="1.5" fill="#12a4b8"/><line x1="1082.0" y1="216.5" x2="1192.0" y2="221.0" stroke="#9aa3b0" stroke-width="3.40" opacity="0.6"/><line x1="1082.0" y1="225.5" x2="1192.0" y2="221.0" stroke="#9aa3b0" stroke-width="3.40" opacity="0.6"/><line x1="1082.0" y1="234.5" x2="1192.0" y2="239.0" stroke="#9aa3b0" stroke-width="3.40" opacity="0.6"/><line x1="1082.0" y1="243.5" x2="1192.0" y2="239.0" stroke="#9aa3b0" stroke-width="3.40" opacity="0.6"/><line x1="1082.0" y1="252.5" x2="1192.0" y2="257.0" stroke="#9aa3b0" stroke-width="3.40" opacity="0.6"/><line x1="1082.0" y1="261.5" x2="1192.0" y2="257.0" stroke="#9aa3b0" stroke-width="3.40" opacity="0.6"/><line x1="1082.0" y1="270.5" x2="1192.0" y2="275.0" stroke="#9aa3b0" stroke-width="3.40" opacity="0.6"/><line x1="1082.0" y1="279.5" x2="1192.0" y2="275.0" stroke="#9aa3b0" stroke-width="3.40" opacity="0.6"/><line x1="1082.0" y1="288.5" x2="1192.0" y2="293.0" stroke="#9aa3b0" stroke-width="3.40" opacity="0.6"/><line x1="1082.0" y1="297.5" x2="1192.0" y2="293.0" stroke="#9aa3b0" stroke-width="3.40" opacity="0.6"/><line x1="1082.0" y1="306.5" x2="1192.0" y2="311.0" stroke="#9aa3b0" stroke-width="3.40" opacity="0.6"/><line x1="1082.0" y1="315.5" x2="1192.0" y2="311.0" stroke="#9aa3b0" stroke-width="3.40" opacity="0.6"/><line x1="1082.0" y1="324.5" x2="1192.0" y2="329.0" stroke="#9aa3b0" stroke-width="3.40" opacity="0.6"/><line x1="1082.0" y1="333.5" x2="1192.0" y2="329.0" stroke="#9aa3b0" stroke-width="3.40" opacity="0.6"/><line x1="1082.0" y1="342.5" x2="1192.0" y2="347.0" stroke="#9aa3b0" stroke-width="3.40" opacity="0.6"/><line x1="1082.0" y1="351.5" x2="1192.0" y2="347.0" stroke="#9aa3b0" stroke-width="3.40" opacity="0.6"/><line x1="1082.0" y1="360.5" x2="1192.0" y2="365.0" stroke="#9aa3b0" stroke-width="3.40" opacity="0.6"/><line x1="1082.0" y1="369.5" x2="1192.0" y2="365.0" stroke="#9aa3b0" stroke-width="3.40" opacity="0.6"/><line x1="1082.0" y1="378.5" x2="1192.0" y2="383.0" stroke="#9aa3b0" stroke-width="3.40" opacity="0.6"/><line x1="1082.0" y1="387.5" x2="1192.0" y2="383.0" stroke="#9aa3b0" stroke-width="3.40" opacity="0.6"/><line x1="1082.0" y1="396.5" x2="1192.0" y2="401.0" stroke="#9aa3b0" stroke-width="3.40" opacity="0.6"/><line x1="1082.0" y1="405.5" x2="1192.0" y2="401.0" stroke="#9aa3b0" stroke-width="3.40" opacity="0.6"/><line x1="1082.0" y1="414.5" x2="1192.0" y2="419.0" stroke="#9aa3b0" stroke-width="3.40" opacity="0.6"/><line x1="1082.0" y1="423.5" x2="1192.0" y2="419.0" stroke="#9aa3b0" stroke-width="3.40" opacity="0.6"/><rect x="1062" y="166.0" width="150" height="278.0" rx="9" fill="#fbfcfe" stroke="#cfd6e0" stroke-width="1"/><text x="1072" y="184.0" font-size="13.5" font-weight="700" fill="#8e44ad">ff1</text><text x="1072" y="198.0" font-size="9" fill="#6b7280">36 tiles · R=3 C=12 · 4.84 MB · [60,420, 120,841)</text><circle cx="1082.0" cy="216.5" r="3.1" fill="#8e44ad"/><circle cx="1082.0" cy="225.5" r="3.1" fill="#8e44ad"/><circle cx="1082.0" cy="234.5" r="3.1" fill="#8e44ad"/><circle cx="1082.0" cy="243.5" r="3.1" fill="#8e44ad"/><circle cx="1082.0" cy="252.5" r="3.1" fill="#8e44ad"/><circle cx="1082.0" cy="261.5" r="3.1" fill="#8e44ad"/><circle cx="1082.0" cy="270.5" r="3.1" fill="#8e44ad"/><circle cx="1082.0" cy="279.5" r="3.1" fill="#8e44ad"/><circle cx="1082.0" cy="288.5" r="3.1" fill="#8e44ad"/><circle cx="1082.0" cy="297.5" r="3.1" fill="#8e44ad"/><circle cx="1082.0" cy="306.5" r="3.1" fill="#8e44ad"/><circle cx="1082.0" cy="315.5" r="3.1" fill="#8e44ad"/><circle cx="1082.0" cy="324.5" r="3.1" fill="#8e44ad"/><circle cx="1082.0" cy="333.5" r="3.1" fill="#8e44ad"/><circle cx="1082.0" cy="342.5" r="3.1" fill="#8e44ad"/><circle cx="1082.0" cy="351.5" r="3.1" fill="#8e44ad"/><circle cx="1082.0" cy="360.5" r="3.1" fill="#8e44ad"/><circle cx="1082.0" cy="369.5" r="3.1" fill="#8e44ad"/><circle cx="1082.0" cy="378.5" r="3.1" fill="#8e44ad"/><circle cx="1082.0" cy="387.5" r="3.1" fill="#8e44ad"/><circle cx="1082.0" cy="396.5" r="3.1" fill="#8e44ad"/><circle cx="1082.0" cy="405.5" r="3.1" fill="#8e44ad"/><circle cx="1082.0" cy="414.5" r="3.1" fill="#8e44ad"/><circle cx="1082.0" cy="423.5" r="3.1" fill="#8e44ad"/><rect x="1187.5" y="216.5" width="9" height="9" rx="1.5" fill="#8e44ad"/><rect x="1187.5" y="234.5" width="9" height="9" rx="1.5" fill="#8e44ad"/><rect x="1187.5" y="252.5" width="9" height="9" rx="1.5" fill="#8e44ad"/><rect x="1187.5" y="270.5" width="9" height="9" rx="1.5" fill="#8e44ad"/><rect x="1187.5" y="288.5" width="9" height="9" rx="1.5" fill="#8e44ad"/><rect x="1187.5" y="306.5" width="9" height="9" rx="1.5" fill="#8e44ad"/><rect x="1187.5" y="324.5" width="9" height="9" rx="1.5" fill="#8e44ad"/><rect x="1187.5" y="342.5" width="9" height="9" rx="1.5" fill="#8e44ad"/><rect x="1187.5" y="360.5" width="9" height="9" rx="1.5" fill="#8e44ad"/><rect x="1187.5" y="378.5" width="9" height="9" rx="1.5" fill="#8e44ad"/><rect x="1187.5" y="396.5" width="9" height="9" rx="1.5" fill="#8e44ad"/><rect x="1187.5" y="414.5" width="9" height="9" rx="1.5" fill="#8e44ad"/><line x1="1320.0" y1="176.0" x2="1430.0" y2="221.0" stroke="#9aa3b0" stroke-width="3.40" opacity="0.6"/><line x1="1320.0" y1="185.0" x2="1430.0" y2="221.0" stroke="#9aa3b0" stroke-width="3.40" opacity="0.6"/><line x1="1320.0" y1="194.0" x2="1430.0" y2="221.0" stroke="#9aa3b0" stroke-width="3.40" opacity="0.6"/><line x1="1320.0" y1="203.0" x2="1430.0" y2="221.0" stroke="#9aa3b0" stroke-width="3.40" opacity="0.6"/><line x1="1320.0" y1="212.0" x2="1430.0" y2="221.0" stroke="#9aa3b0" stroke-width="3.40" opacity="0.6"/><line x1="1320.0" y1="221.0" x2="1430.0" y2="221.0" stroke="#9aa3b0" stroke-width="3.40" opacity="0.6"/><line x1="1320.0" y1="230.0" x2="1430.0" y2="221.0" stroke="#9aa3b0" stroke-width="3.40" opacity="0.6"/><line x1="1320.0" y1="239.0" x2="1430.0" y2="221.0" stroke="#9aa3b0" stroke-width="3.40" opacity="0.6"/><line x1="1320.0" y1="248.0" x2="1430.0" y2="221.0" stroke="#9aa3b0" stroke-width="3.40" opacity="0.6"/><line x1="1320.0" y1="257.0" x2="1430.0" y2="221.0" stroke="#9aa3b0" stroke-width="3.40" opacity="0.6"/><line x1="1320.0" y1="266.0" x2="1430.0" y2="221.0" stroke="#9aa3b0" stroke-width="3.40" opacity="0.6"/><line x1="1320.0" y1="275.0" x2="1430.0" y2="320.0" stroke="#9aa3b0" stroke-width="3.40" opacity="0.6"/><line x1="1320.0" y1="284.0" x2="1430.0" y2="320.0" stroke="#9aa3b0" stroke-width="3.40" opacity="0.6"/><line x1="1320.0" y1="293.0" x2="1430.0" y2="320.0" stroke="#9aa3b0" stroke-width="3.40" opacity="0.6"/><line x1="1320.0" y1="302.0" x2="1430.0" y2="320.0" stroke="#9aa3b0" stroke-width="3.40" opacity="0.6"/><line x1="1320.0" y1="311.0" x2="1430.0" y2="320.0" stroke="#9aa3b0" stroke-width="3.40" opacity="0.6"/><line x1="1320.0" y1="320.0" x2="1430.0" y2="320.0" stroke="#9aa3b0" stroke-width="3.40" opacity="0.6"/><line x1="1320.0" y1="329.0" x2="1430.0" y2="320.0" stroke="#9aa3b0" stroke-width="3.40" opacity="0.6"/><line x1="1320.0" y1="338.0" x2="1430.0" y2="320.0" stroke="#9aa3b0" stroke-width="3.40" opacity="0.6"/><line x1="1320.0" y1="347.0" x2="1430.0" y2="320.0" stroke="#9aa3b0" stroke-width="3.40" opacity="0.6"/><line x1="1320.0" y1="356.0" x2="1430.0" y2="320.0" stroke="#9aa3b0" stroke-width="3.40" opacity="0.6"/><line x1="1320.0" y1="365.0" x2="1430.0" y2="320.0" stroke="#9aa3b0" stroke-width="3.40" opacity="0.6"/><line x1="1320.0" y1="374.0" x2="1430.0" y2="419.0" stroke="#9aa3b0" stroke-width="3.40" opacity="0.6"/><line x1="1320.0" y1="383.0" x2="1430.0" y2="419.0" stroke="#9aa3b0" stroke-width="3.40" opacity="0.6"/><line x1="1320.0" y1="392.0" x2="1430.0" y2="419.0" stroke="#9aa3b0" stroke-width="3.40" opacity="0.6"/><line x1="1320.0" y1="401.0" x2="1430.0" y2="419.0" stroke="#9aa3b0" stroke-width="3.40" opacity="0.6"/><line x1="1320.0" y1="410.0" x2="1430.0" y2="419.0" stroke="#9aa3b0" stroke-width="3.40" opacity="0.6"/><line x1="1320.0" y1="419.0" x2="1430.0" y2="419.0" stroke="#9aa3b0" stroke-width="3.40" opacity="0.6"/><line x1="1320.0" y1="428.0" x2="1430.0" y2="419.0" stroke="#9aa3b0" stroke-width="3.40" opacity="0.6"/><line x1="1320.0" y1="437.0" x2="1430.0" y2="419.0" stroke="#9aa3b0" stroke-width="3.40" opacity="0.6"/><line x1="1320.0" y1="446.0" x2="1430.0" y2="419.0" stroke="#9aa3b0" stroke-width="3.40" opacity="0.6"/><line x1="1320.0" y1="455.0" x2="1430.0" y2="419.0" stroke="#9aa3b0" stroke-width="3.40" opacity="0.6"/><line x1="1320.0" y1="464.0" x2="1430.0" y2="419.0" stroke="#9aa3b0" stroke-width="3.40" opacity="0.6"/><rect x="1300" y="125.5" width="150" height="359.0" rx="9" fill="#fbfcfe" stroke="#cfd6e0" stroke-width="1"/><text x="1310" y="143.5" font-size="13.5" font-weight="700" fill="#d84a44">ff2</text><text x="1310" y="157.5" font-size="9" fill="#6b7280">36 tiles · R=12 C=3 · 6.66 MB · [120,841, 181,262)</text><circle cx="1320.0" cy="176.0" r="3.1" fill="#d84a44"/><circle cx="1320.0" cy="185.0" r="3.1" fill="#d84a44"/><circle cx="1320.0" cy="194.0" r="3.1" fill="#d84a44"/><circle cx="1320.0" cy="203.0" r="3.1" fill="#d84a44"/><circle cx="1320.0" cy="212.0" r="3.1" fill="#d84a44"/><circle cx="1320.0" cy="221.0" r="3.1" fill="#d84a44"/><circle cx="1320.0" cy="230.0" r="3.1" fill="#d84a44"/><circle cx="1320.0" cy="239.0" r="3.1" fill="#d84a44"/><circle cx="1320.0" cy="248.0" r="3.1" fill="#d84a44"/><circle cx="1320.0" cy="257.0" r="3.1" fill="#d84a44"/><circle cx="1320.0" cy="266.0" r="3.1" fill="#d84a44"/><circle cx="1320.0" cy="275.0" r="3.1" fill="#d84a44"/><circle cx="1320.0" cy="284.0" r="3.1" fill="#d84a44"/><circle cx="1320.0" cy="293.0" r="3.1" fill="#d84a44"/><circle cx="1320.0" cy="302.0" r="3.1" fill="#d84a44"/><circle cx="1320.0" cy="311.0" r="3.1" fill="#d84a44"/><circle cx="1320.0" cy="320.0" r="3.1" fill="#d84a44"/><circle cx="1320.0" cy="329.0" r="3.1" fill="#d84a44"/><circle cx="1320.0" cy="338.0" r="3.1" fill="#d84a44"/><circle cx="1320.0" cy="347.0" r="3.1" fill="#d84a44"/><circle cx="1320.0" cy="356.0" r="3.1" fill="#d84a44"/><circle cx="1320.0" cy="365.0" r="3.1" fill="#d84a44"/><circle cx="1320.0" cy="374.0" r="3.1" fill="#d84a44"/><circle cx="1320.0" cy="383.0" r="3.1" fill="#d84a44"/><circle cx="1320.0" cy="392.0" r="3.1" fill="#d84a44"/><circle cx="1320.0" cy="401.0" r="3.1" fill="#d84a44"/><circle cx="1320.0" cy="410.0" r="3.1" fill="#d84a44"/><circle cx="1320.0" cy="419.0" r="3.1" fill="#d84a44"/><circle cx="1320.0" cy="428.0" r="3.1" fill="#d84a44"/><circle cx="1320.0" cy="437.0" r="3.1" fill="#d84a44"/><circle cx="1320.0" cy="446.0" r="3.1" fill="#d84a44"/><circle cx="1320.0" cy="455.0" r="3.1" fill="#d84a44"/><circle cx="1320.0" cy="464.0" r="3.1" fill="#d84a44"/><rect x="1425.5" y="216.5" width="9" height="9" rx="1.5" fill="#d84a44"/><rect x="1425.5" y="315.5" width="9" height="9" rx="1.5" fill="#d84a44"/><rect x="1425.5" y="414.5" width="9" height="9" rx="1.5" fill="#d84a44"/><path d="M 40.0 320.0 L 40.0 504.5 L 964.0 504.5 L 964.0 327.0" fill="none" stroke="#7a5bd0" stroke-width="1.7" stroke-dasharray="6 3" opacity="0.9" marker-end="url(#a)"/><text x="502" y="500" text-anchor="middle" font-size="10" font-weight="600" fill="#7a5bd0">attn residual (0.15 MB, spans q…o)</text><path d="M 964.0 320.0 L 964.0 528.5 L 1430.0 528.5 L 1430.0 327.0" fill="none" stroke="#7a5bd0" stroke-width="1.7" stroke-dasharray="6 3" opacity="0.9" marker-end="url(#a)"/><text x="1197" y="524" text-anchor="middle" font-size="10" font-weight="600" fill="#7a5bd0">FFN residual (0.15 MB, spans ff1…ff2)</text><text x="26" y="612" font-size="11.5" font-weight="700" fill="#222">phase windows within one t_period (181,263 cycles)</text><text x="140" y="629" text-anchor="end" font-size="9.5" fill="#6b7280">q</text><rect x="150.0" y="620" width="114.2" height="11" rx="2" fill="#3f6fd1"/><text x="140" y="646" text-anchor="end" font-size="9.5" fill="#6b7280">k</text><rect x="264.2" y="637" width="114.2" height="11" rx="2" fill="#e8890c"/><text x="140" y="663" text-anchor="end" font-size="9.5" fill="#6b7280">v</text><rect x="378.3" y="654" width="114.2" height="11" rx="2" fill="#2a9d5c"/><text x="140" y="680" text-anchor="end" font-size="9.5" fill="#6b7280">o</text><rect x="492.5" y="671" width="114.2" height="11" rx="2" fill="#12a4b8"/><text x="140" y="697" text-anchor="end" font-size="9.5" fill="#6b7280">ff1</text><rect x="606.7" y="688" width="456.7" height="11" rx="2" fill="#8e44ad"/><text x="140" y="714" text-anchor="end" font-size="9.5" fill="#6b7280">ff2</text><rect x="1063.3" y="705" width="456.7" height="11" rx="2" fill="#d84a44"/><text x="140" y="731" text-anchor="end" font-size="9.5" fill="#7a5bd0">attn residual</text><rect x="150.0" y="722" width="456.7" height="11" rx="2" fill="#7a5bd0" stroke="#7a5bd0" stroke-width="1" stroke-dasharray="4 2" fill-opacity="0.5"/><text x="140" y="748" text-anchor="end" font-size="9.5" fill="#7a5bd0">FFN residual</text><rect x="606.7" y="739" width="913.3" height="11" rx="2" fill="#7a5bd0" stroke="#7a5bd0" stroke-width="1" stroke-dasharray="4 2" fill-opacity="0.5"/><text x="150" y="768" text-anchor="middle" font-size="8.5" fill="#6b7280">0</text><text x="492" y="768" text-anchor="middle" font-size="8.5" fill="#6b7280">45,315</text><text x="835" y="768" text-anchor="middle" font-size="8.5" fill="#6b7280">90,631</text><text x="1178" y="768" text-anchor="middle" font-size="8.5" fill="#6b7280">135,947</text><text x="1520" y="768" text-anchor="middle" font-size="8.5" fill="#6b7280">181,263</text><circle cx="30" cy="795" r="4" fill="#6b7280"/><text x="40" y="798" font-size="10" fill="#6b7280">producer tile</text><rect x="146" y="791" width="9" height="9" rx="1.5" fill="#6b7280"/><text x="160" y="798" font-size="10" fill="#6b7280">accumulator (reduction sink)</text><line x1="356" y1="795" x2="376" y2="795" stroke="#9aa3b0" stroke-width="2.4"/><text x="382" y="798" font-size="10" fill="#6b7280">scatter / reduce (width ∝ bytes)</text><line x1="571" y1="795" x2="591" y2="795" stroke="#7a5bd0" stroke-width="1.6" stroke-dasharray="5 3"/><text x="597" y="798" font-size="10" fill="#6b7280">residual add</text><text x="1520" y="780" text-anchor="end" font-size="9" fill="#6b7280" font-style="italic">attention QKᵀ·V matmuls are activation-only (no crossbars) and not in the traffic table — chain shown as the table models it</text></svg>